<?xml version="1.0" standalone="no"?><!DOCTYPE svg PUBLIC "-//W3C//DTD SVG 1.1//EN" "http://www.w3.org/Graphics/SVG/1.1/DTD/svg11.dtd"><svg t="1723361739598" class="icon" viewBox="0 0 1024 1024" version="1.1" xmlns="http://www.w3.org/2000/svg" p-id="6363" width="32" height="32" xmlns:xlink="http://www.w3.org/1999/xlink"><path d="M996.01 1024H27.99c-7.318 0-13.825-2.837-19.5-8.49-5.653-5.675-8.49-12.16-8.49-19.5 0-8.02 2.837-14.677 8.49-20.01 5.675-5.333 12.16-8 19.5-8h968.02c7.318 0 13.825 2.667 19.5 8 5.653 5.333 8.49 11.99 8.49 20.01 0 7.318-2.837 13.825-8.49 19.5-5.675 5.653-12.16 8.49-19.5 8.49z m-69.013-648c5.334 5.333 7.83 11.99 7.51 20.01-0.342 8-3.84 14.998-10.496 20.993L529.984 811.989l-4.992 2.006-2.987 2.986a44.8 44.8 0 0 1-22.997 0l-2.005-2.986a6.784 6.784 0 0 1-5.014-1.984L97.003 417.003a33.216 33.216 0 0 1-6.998-21.014c0-8 2.496-14.506 7.488-19.498 5.014-4.992 11.84-7.488 20.502-7.488 8.682 0 15.338 2.346 20.01 6.997l347.968 346.005V27.99c0-8 2.496-14.656 7.51-19.989C498.496 2.667 504.66 0 512 0s13.504 2.667 18.496 8c5.013 5.333 7.51 11.99 7.51 20.01v693.974l347.967-345.963c4.672-4.672 11.35-6.997 20.011-6.997s15.659 2.347 20.992 6.997z" p-id="6364" fill="#2c2c2c"></path></svg>